<svg version="1.1" id="Layer_1" xmlns="http://www.w3.org/2000/svg" xmlns:xlink="http://www.w3.org/1999/xlink" x="0px" y="0px"
	 width="100%" viewBox="0 0 500 303" enable-background="new 0 0 500 303" xml:space="preserve">
<path fill="#000000" opacity="1.000000" stroke="none" 
	d="
M328.000000,304.000000 
	C220.033463,304.000000 112.566902,303.983582 5.100451,304.079834 
	C1.896049,304.082703 0.887730,303.733490 0.892687,300.102722 
	C1.027135,201.633560 1.020086,103.164169 0.911756,4.694943 
	C0.908173,1.438227 1.811825,0.930908 4.802851,0.932298 
	C168.918396,1.008617 333.033966,1.007164 497.149506,0.941555 
	C500.028076,0.940404 501.100098,1.272708 501.096039,4.647307 
	C500.977386,103.283112 500.979553,201.919128 501.093292,300.554932 
	C501.096924,303.688843 500.277618,304.074707 497.446991,304.069977 
	C441.131439,303.976166 384.815704,304.000000 328.000000,304.000000 
z"/>
<path fill="#023E66" opacity="1.000000" stroke="none" 
	d="
M237.501007,104.647064 
	C241.621353,104.319984 244.320236,106.792976 247.580261,108.782806 
	C250.662369,109.498451 251.289459,111.760765 251.984833,114.023224 
	C255.385071,125.086105 261.988342,128.633804 272.813629,125.145676 
	C280.998291,122.508408 288.014191,124.279778 293.393433,130.960526 
	C297.036224,135.484741 300.129242,140.435730 300.163483,146.625702 
	C300.202057,153.605499 296.749115,158.647781 290.136383,161.019302 
	C288.886688,161.467468 287.656647,162.036667 286.381012,162.341858 
	C276.927338,164.603699 274.233704,170.449081 277.338440,182.830353 
	C278.127747,185.977951 280.123871,188.958420 278.418030,192.682770 
	C277.725525,195.645920 278.358856,198.478302 277.074371,201.471481 
	C276.822113,206.168732 272.821686,207.197449 270.253265,209.212357 
	C264.679932,213.584595 258.176178,216.548859 250.985199,215.866791 
	C243.017563,215.111038 237.827850,210.160614 235.053314,202.280350 
	C235.850494,198.706711 233.498184,196.272644 233.057068,193.385666 
	C231.811523,185.234070 236.367188,179.801102 241.877930,174.431168 
	C242.961182,171.133957 245.458771,170.472687 248.121735,169.780548 
	C252.499161,168.642761 256.858551,167.133957 259.327087,162.988342 
	C263.524475,155.939331 260.644775,149.360291 257.051178,143.276672 
	C253.927002,137.987839 248.187271,136.297043 241.703613,137.847626 
	C236.545700,139.081192 231.500137,140.391602 226.022873,139.337296 
	C220.657303,138.304504 216.676910,135.572510 214.390076,130.892776 
	C208.764786,119.381332 209.207001,108.995499 225.912415,104.602753 
	C229.627380,103.625877 233.426315,101.298515 237.501007,104.647064 
z"/>
<path fill="#93B92E" opacity="1.000000" stroke="none" 
	d="
M237.863922,104.659561 
	C231.646332,104.884308 225.778168,106.281136 220.422638,108.780411 
	C214.069366,111.745308 212.317520,117.058533 214.482208,123.505020 
	C218.944000,136.792313 225.668762,140.483734 238.895584,136.158936 
	C251.602676,132.004105 259.944214,138.629593 262.890198,150.553192 
	C266.446960,164.948715 258.145416,169.889786 248.279083,171.918640 
	C246.264755,172.332855 244.999451,174.315094 242.435669,174.078796 
	C231.812607,173.703339 226.124542,168.938965 223.947388,158.981903 
	C221.736755,148.871704 217.820328,146.146133 207.251022,145.681702 
	C201.658752,145.435959 196.653351,147.503845 191.316452,148.154465 
	C185.065735,148.916473 181.140884,146.077835 177.520645,141.793167 
	C173.502045,137.037048 172.605347,126.156464 176.501541,121.448715 
	C179.858292,117.392776 183.478470,114.119339 189.767593,113.654190 
	C195.761185,113.210884 202.326172,110.824791 205.987106,105.375610 
	C208.348541,101.860703 207.726151,97.044998 206.199799,93.037361 
	C204.430954,88.393013 207.947723,82.088623 212.933884,82.020432 
	C219.593307,81.929344 226.255203,82.033844 232.915436,81.980537 
	C235.970322,81.956093 238.020340,82.217827 239.876663,85.744301 
	C244.012238,93.600716 244.067566,98.071068 237.863922,104.659561 
z"/>
<path fill="#00ABDC" opacity="1.000000" stroke="none" 
	d="
M278.432434,193.095825 
	C276.245880,186.336853 273.298096,180.030823 273.952545,172.802399 
	C274.481232,166.963470 277.174683,162.776169 282.692261,161.014725 
	C283.005463,160.914749 283.358582,160.939560 283.671600,160.839218 
	C289.827881,158.865570 296.605865,157.384445 297.962677,149.633636 
	C299.265839,142.189041 293.457458,131.867798 286.555267,128.039673 
	C281.791595,125.397636 276.744080,125.922676 272.270233,127.827713 
	C263.092407,131.735748 252.775543,125.759338 250.028351,116.061081 
	C249.409744,113.877274 248.683685,111.723907 247.960220,109.223068 
	C249.859604,99.765564 257.155579,98.224609 264.707642,97.015106 
	C273.445984,95.615593 278.852081,98.984146 282.055878,107.569138 
	C284.595642,114.374763 290.164642,117.877899 296.724060,119.919502 
	C299.271912,120.712517 301.516663,118.791199 303.884277,118.195999 
	C314.991089,115.403786 324.124176,121.178650 328.175018,132.202652 
	C329.744598,136.474060 330.721588,140.083221 328.083038,144.270874 
	C325.912140,147.716324 322.880280,149.561020 319.176392,149.892532 
	C310.677948,150.653198 304.856628,160.045609 309.568939,168.638763 
	C312.214600,173.463257 315.493408,178.391479 315.014313,184.510025 
	C314.668304,188.928909 307.380066,197.085281 303.120209,198.057083 
	C299.438354,198.897064 295.933441,199.967712 292.029022,200.193161 
	C285.870728,200.548752 282.206635,197.386719 278.432434,193.095825 
z"/>
<path fill="#E5E5E6" opacity="1.000000" stroke="none" 
	d="
M234.561874,201.933533 
	C237.690964,202.382294 238.443207,204.836029 239.719513,206.650558 
	C244.329071,213.204086 250.481445,214.903381 258.321625,212.887924 
	C265.542572,211.031677 270.456360,205.843842 276.713074,201.994995 
	C280.364929,201.909836 283.699158,202.136383 287.012115,201.960754 
	C298.568939,201.348099 309.625885,206.196762 321.221710,205.002243 
	C325.048767,208.841888 330.296173,206.067047 334.733093,207.944931 
	C338.800690,209.666519 338.427643,212.503555 337.863464,215.299118 
	C337.326996,217.957291 335.017944,219.516342 332.217346,219.997025 
	C313.445435,223.218887 294.500031,223.083618 275.548798,223.021805 
	C251.583496,222.943649 227.617203,223.092377 203.652466,222.952820 
	C196.075043,222.908707 188.415497,222.819229 180.954391,221.688828 
	C175.542816,220.868942 169.840408,219.973190 165.033783,216.875992 
	C162.842911,215.464279 164.359787,212.974411 164.021118,211.002441 
	C163.691589,209.083817 165.003479,209.330643 166.351181,208.900482 
	C179.006836,204.861008 192.306747,204.527451 205.259979,202.331390 
	C214.620880,200.744339 224.463806,202.000488 234.561874,201.933533 
z"/>
</svg>